<?xml version="1.0" encoding="utf-8"?>
<!-- Generator: Adobe Illustrator 18.0.0, SVG Export Plug-In . SVG Version: 6.00 Build 0)  -->
<!DOCTYPE svg PUBLIC "-//W3C//DTD SVG 1.1//EN" "http://www.w3.org/Graphics/SVG/1.1/DTD/svg11.dtd">
<svg version="1.1" id="Layer_1" xmlns="http://www.w3.org/2000/svg" xmlns:xlink="http://www.w3.org/1999/xlink" x="0px" y="0px"
	 viewBox="0 0 111.5 36.1" enable-background="new 0 0 111.5 36.1" xml:space="preserve">
<g id="stroke">
	<path fill="#B2B2B2" d="M2.4,24.8c35.6-1.1,71.1-2.1,106.7-3.2c3.2-0.1,3.2-5.1,0-5C73.5,17.7,38,18.8,2.4,19.8
		C-0.8,19.9-0.8,24.9,2.4,24.8L2.4,24.8z"/>
</g>
<path id="letter_x5F_u" d="M36.5,27.3c0,1.7-1.4,3.1-3.1,3.1c-1.7,0-3.1-1.4-3.1-3.1v-0.2c-1.4,1.8-3.3,3.5-6.4,3.5
	c-4.7,0-7.5-3.1-7.5-8.2V11.1c0-1.7,1.4-3.1,3.1-3.1c1.7,0,3.1,1.4,3.1,3.1v9.4c0,3,1.4,4.5,3.8,4.5s3.9-1.5,3.9-4.5v-9.4
	c0-1.7,1.4-3.1,3.1-3.1c1.7,0,3.1,1.4,3.1,3.1V27.3z"/>
<path id="letter_x5F_1l" d="M40.8,3.4c0-1.9,1.4-3.4,3.1-3.4C45.6,0,47,1.5,47,3.4v26c0,1.9-1.4,3.4-3.1,3.4c-1.7,0-3.1-1.5-3.1-3.4
	V3.4z"/>
<path id="letter_x5F_2l" d="M51.5,3.7c0-2,1.4-3.7,3.1-3.7c1.7,0,3.1,1.7,3.1,3.7v28.7c0,2-1.4,3.7-3.1,3.7c-1.7,0-3.1-1.7-3.1-3.7
	V3.7z"/>
<path id="letter_x5F_i" d="M61.9,3c0-1.8,1.5-2.9,3.5-2.9c2,0,3.5,1.1,3.5,2.9V3c0,1.8-1.5,3-3.5,3C63.4,6,61.9,4.8,61.9,3L61.9,3z
	 M62.2,11.1c0-1.7,1.4-3.1,3.1-3.1c1.7,0,3.1,1.4,3.1,3.1v16.2c0,1.7-1.4,3.1-3.1,3.1c-1.7,0-3.1-1.4-3.1-3.1V11.1z"/>
<path id="letter_x5F_e" d="M93.1,18.4c0-4.6-3.2-10.6-10.6-10.6c-6,0-10.3,4.5-10.8,10.2l-0.2,0.2l0.2,0c0,0.3,0,0.6,0,1v0.1
	c0,6.7,4.9,11.4,11.5,11.4c3.2,0,5.7-1,7.6-2.7c0.5-0.4,0.8-1,0.8-1.8c0-1.4-1-2.5-2.4-2.5c-0.7,0-1.1,0.2-1.5,0.5
	c-1.3,0.9-2.7,1.5-4.4,1.5c-2.8,0-4.8-1.5-5.4-4.3h12.3C91.8,21.4,93.1,20.2,93.1,18.4z"/>
</svg>
